<svg width="69" height="49" viewBox="0 0 69 49" fill="none" xmlns="http://www.w3.org/2000/svg">
<g clip-path="url(#clip0_1_245)">
<path d="M67.02 7.95997C66.24 5.02997 64.53 2.54997 61.6 1.76997C56.29 0.349971 34.5 0.219971 34.5 0.219971C34.5 0.219971 12.71 0.349971 7.4 1.76997C4.47 2.54997 2.77 5.02997 1.98 7.95997C0.56 13.27 0.5 24.22 0.5 24.22C0.5 24.22 0.56 35.17 1.98 40.48C2.76 43.41 4.47 45.89 7.4 46.67C12.71 48.09 34.5 48.22 34.5 48.22C34.5 48.22 56.29 48.09 61.6 46.67C64.53 45.89 66.24 43.41 67.02 40.48C68.44 35.17 68.5 24.22 68.5 24.22C68.5 24.22 68.44 13.27 67.02 7.95997Z" fill="#FF0000"/>
<path d="M45.5 24.22L27.5 14.22V34.22" fill="white"/>
</g>
<defs>
<clipPath id="clip0_1_245">
<rect width="68" height="48" fill="white" transform="translate(0.5 0.219971)"/>
</clipPath>
</defs>
</svg>
