<svg width="73" height="17" viewBox="0 0 73 17" fill="none" xmlns="http://www.w3.org/2000/svg">
<g clip-path="url(#clip0_1_250)">
<path d="M12.9685 1.32915C11.0423 1.35377 7.02384 1.43377 5.77461 1.75377C4.85769 1.99992 4.18076 2.73838 3.93461 3.59992C3.50999 5.26146 3.51615 8.71377 3.51615 8.71377C3.51615 8.71377 3.50999 12.1661 3.93461 13.8276C4.17461 14.7507 4.91307 15.4276 5.77461 15.6738C7.42999 16.1045 14.0208 16.0922 14.0208 16.0922C14.0208 16.0922 20.6054 16.0984 22.2669 15.6738C23.19 15.4276 23.8608 14.6892 24.1069 13.8276C24.5315 12.1661 24.5254 8.71377 24.5254 8.71377C24.5254 8.71377 24.5931 5.26146 24.1069 3.59992C23.8608 2.67684 23.1285 1.99992 22.2669 1.75377C20.6177 1.323 14.0269 1.32915 14.0269 1.32915C14.0269 1.32915 13.6146 1.323 12.9746 1.32915H12.9685ZM57.4054 1.883V14.9784H59.1161L59.3069 14.1353H59.3623C59.5469 14.443 59.7992 14.6768 60.1069 14.8615C60.4146 15.0461 60.7715 15.1076 61.1408 15.1076C61.8177 15.1076 62.3654 14.8061 62.6731 14.1292C62.9808 13.4522 63.1715 12.4676 63.1715 11.1138V9.63684C63.1715 8.65223 63.1038 7.85223 62.9808 7.23684C62.8577 6.68915 62.6731 6.25838 62.3654 5.95069C62.0577 5.70454 61.6885 5.58761 61.1962 5.58761C60.8331 5.58761 60.47 5.70454 60.1623 5.88915C59.8608 6.07377 59.5408 6.38146 59.4177 6.75069V1.88915H57.3992L57.4054 1.883ZM26.6423 2.363L29.0423 10.9168L29.1531 15.0461H31.19V10.9168L33.5715 2.363H31.4977L30.6361 6.24607C30.39 7.40915 30.1992 8.20915 30.1377 8.70146H30.0823C29.9592 8.02454 29.7685 7.22454 29.5838 6.24607L28.7408 2.363H26.6485H26.6423ZM44.8515 2.363V4.03069H46.9438V15.0461H48.9623V4.03069H51.0546C51.0546 4.03069 51.0546 2.363 50.9992 2.363H44.8515ZM11.9346 5.51377L17.4115 8.70146L11.9346 11.8338V5.50761V5.51377ZM66.95 5.56915C65.9038 5.56915 65.1715 5.93223 64.7408 6.54761C64.3162 7.15684 64.1315 8.14761 64.1315 9.563V11.1568C64.1315 12.5107 64.3162 13.5568 64.7408 14.1722C65.1715 14.8492 65.8485 15.1507 66.8946 15.1507C67.7561 15.1507 68.3592 14.9661 68.8515 14.5353C69.2823 14.1045 69.5223 13.4953 69.5223 12.6338V12.3261L67.7377 12.1968C67.7377 12.8122 67.6885 13.1815 67.5654 13.4276C67.5038 13.6738 67.2577 13.8092 66.95 13.8092C66.7654 13.8092 66.5746 13.7415 66.4515 13.6184C66.3285 13.4338 66.2669 13.2553 66.2054 12.9476C66.1438 12.6399 66.15 12.203 66.15 11.5876V11.1076L69.6638 11.0522V9.43992C69.6638 8.45531 69.6023 7.72915 69.4177 7.1753C69.2946 6.62761 68.9808 6.19684 68.6115 5.95069C68.1808 5.70454 67.7008 5.58761 66.9623 5.58761L66.95 5.56915ZM35.8792 5.62454C35.2085 5.62454 34.6423 5.7353 34.2115 6.043C33.7808 6.28915 33.4731 6.73223 33.2946 7.34761C33.11 7.963 32.9869 8.74454 32.9869 9.72915V11.0892C32.9869 12.0122 33.0485 12.7999 33.2331 13.4153C33.3561 13.9692 33.6638 14.4122 34.0946 14.7199C34.5192 15.0276 35.1469 15.1384 35.8238 15.1999C36.5561 15.1999 37.1038 15.0276 37.5346 14.7815C37.9592 14.5353 38.2054 14.1107 38.4515 13.4953C38.6915 12.8799 38.7531 12.0799 38.7531 11.0953V9.7353C38.7531 8.75069 38.63 7.96915 38.4515 7.35377C38.2669 6.80607 37.9592 6.35684 37.5346 6.04915C37.1038 5.74146 36.5623 5.63069 35.8854 5.63069L35.8792 5.62454ZM43.3746 5.67992V13.003C43.3131 13.1876 43.1962 13.2984 43.0115 13.4215C42.8885 13.5445 42.6977 13.6122 42.5131 13.6122C42.3285 13.6122 42.1562 13.5507 42.0946 13.3661C42.0331 13.1815 41.9838 12.9353 41.9838 12.5045V5.74146H39.8915V12.6399C39.8915 13.5015 40.0023 14.1107 40.31 14.5415C40.6115 14.9722 41.0546 15.1568 41.67 15.1568C42.5315 15.1568 43.1962 14.7322 43.6269 13.8707H43.6823L43.8731 14.9661H45.4669V5.74146C45.4669 5.74146 43.3746 5.74146 43.3746 5.68607V5.67992ZM54.0269 5.67992V13.003C53.9654 13.1876 53.8485 13.2984 53.6638 13.4215C53.5408 13.5445 53.35 13.6122 53.1654 13.6122C52.9808 13.6122 52.8085 13.5507 52.7469 13.3661C52.6854 13.1815 52.6177 12.9353 52.6177 12.5045V5.74146H50.5254V12.6399C50.5254 13.5015 50.6546 14.1107 50.9623 14.5415C51.27 14.9722 51.6885 15.1568 52.3038 15.1568C53.1592 15.1568 53.8485 14.7322 54.2792 13.8707H54.3346L54.5069 14.9661H56.1192V5.74146C56.1192 5.74146 54.0269 5.74146 54.0269 5.68607V5.67992ZM66.8885 6.96607C67.1346 6.96607 67.2454 7.03377 67.3685 7.15684C67.4915 7.34146 67.5531 7.51992 67.6146 7.82761C67.6762 8.13531 67.67 8.57223 67.67 9.18761V9.85838H66.1315V9.18761C66.1315 8.57223 66.1315 8.13531 66.1869 7.82761C66.1869 7.58146 66.2546 7.33531 66.3777 7.21223C66.5008 7.02761 66.6915 6.96607 66.8762 6.96607H66.8885ZM35.8177 7.03992C36.1254 7.03992 36.31 7.15069 36.4331 7.45838C36.55 7.76607 36.6054 8.25838 36.6054 8.93531V11.8153C36.6054 12.4922 36.5562 12.9845 36.4331 13.2922C36.31 13.5999 36.1254 13.7107 35.8177 13.7107C35.51 13.7107 35.3315 13.5999 35.2085 13.2922C35.0854 12.9845 35.0177 12.4922 35.0177 11.8153V8.93531C35.0177 8.25838 35.0854 7.76607 35.2085 7.45838C35.3315 7.15069 35.51 7.03992 35.8177 7.03992ZM60.2361 7.0953C60.4208 7.0953 60.6115 7.15684 60.7346 7.34146C60.8577 7.52607 60.9008 7.75377 60.9623 8.18454C61.0238 8.55377 61.0362 9.11377 61.0362 9.85223L61.0915 11.0215C61.0915 11.6984 61.0915 12.2461 61.0362 12.6153C60.9746 12.9845 60.9192 13.2799 60.7346 13.403C60.6115 13.5876 60.4269 13.6492 60.1808 13.6492C59.9962 13.6492 59.8669 13.5999 59.6823 13.5384C59.5592 13.4768 59.4423 13.3599 59.3192 13.1753V7.94454C59.3808 7.69838 59.4977 7.51377 59.6823 7.32915C59.8669 7.14454 60.0515 7.083 60.2361 7.083V7.0953Z" fill="white" stroke="black" stroke-opacity="0.15" stroke-width="1.23077"/>
<path d="M12.9685 1.32915C11.0423 1.35377 7.02384 1.43377 5.77461 1.75377C4.85769 1.99992 4.18076 2.73838 3.93461 3.59992C3.50999 5.26146 3.51615 8.71377 3.51615 8.71377C3.51615 8.71377 3.50999 12.1661 3.93461 13.8276C4.17461 14.7507 4.91307 15.4276 5.77461 15.6738C7.42999 16.1045 14.0208 16.0922 14.0208 16.0922C14.0208 16.0922 20.6054 16.0984 22.2669 15.6738C23.19 15.4276 23.8608 14.6892 24.1069 13.8276C24.5315 12.1661 24.5254 8.71377 24.5254 8.71377C24.5254 8.71377 24.5931 5.26146 24.1069 3.59992C23.8608 2.67684 23.1285 1.99992 22.2669 1.75377C20.6177 1.323 14.0269 1.32915 14.0269 1.32915C14.0269 1.32915 13.6146 1.323 12.9746 1.32915H12.9685ZM57.4054 1.883V14.9784H59.1161L59.3069 14.1353H59.3623C59.5469 14.443 59.7992 14.6768 60.1069 14.8615C60.4146 15.0461 60.7715 15.1076 61.1408 15.1076C61.8177 15.1076 62.3654 14.8061 62.6731 14.1292C62.9808 13.4522 63.1715 12.4676 63.1715 11.1138V9.63684C63.1715 8.65223 63.1038 7.85223 62.9808 7.23684C62.8577 6.68915 62.6731 6.25838 62.3654 5.95069C62.0577 5.70454 61.6885 5.58761 61.1962 5.58761C60.8331 5.58761 60.47 5.70454 60.1623 5.88915C59.8608 6.07377 59.5408 6.38146 59.4177 6.75069V1.88915H57.3992L57.4054 1.883ZM26.6423 2.363L29.0423 10.9168L29.1531 15.0461H31.19V10.9168L33.5715 2.363H31.4977L30.6361 6.24607C30.39 7.40915 30.1992 8.20915 30.1377 8.70146H30.0823C29.9592 8.02454 29.7685 7.22454 29.5838 6.24607L28.7408 2.363H26.6485H26.6423ZM44.8515 2.363V4.03069H46.9438V15.0461H48.9623V4.03069H51.0546C51.0546 4.03069 51.0546 2.363 50.9992 2.363H44.8515ZM11.9346 5.51377L17.4115 8.70146L11.9346 11.8338V5.50761V5.51377ZM66.95 5.56915C65.9038 5.56915 65.1715 5.93223 64.7408 6.54761C64.3162 7.15684 64.1315 8.14761 64.1315 9.563V11.1568C64.1315 12.5107 64.3162 13.5568 64.7408 14.1722C65.1715 14.8492 65.8485 15.1507 66.8946 15.1507C67.7561 15.1507 68.3592 14.9661 68.8515 14.5353C69.2823 14.1045 69.5223 13.4953 69.5223 12.6338V12.3261L67.7377 12.1968C67.7377 12.8122 67.6885 13.1815 67.5654 13.4276C67.5038 13.6738 67.2577 13.8092 66.95 13.8092C66.7654 13.8092 66.5746 13.7415 66.4515 13.6184C66.3285 13.4338 66.2669 13.2553 66.2054 12.9476C66.1438 12.6399 66.15 12.203 66.15 11.5876V11.1076L69.6638 11.0522V9.43992C69.6638 8.45531 69.6023 7.72915 69.4177 7.1753C69.2946 6.62761 68.9808 6.19684 68.6115 5.95069C68.1808 5.70454 67.7008 5.58761 66.9623 5.58761L66.95 5.56915ZM35.8792 5.62454C35.2085 5.62454 34.6423 5.7353 34.2115 6.043C33.7808 6.28915 33.4731 6.73223 33.2946 7.34761C33.11 7.963 32.9869 8.74454 32.9869 9.72915V11.0892C32.9869 12.0122 33.0485 12.7999 33.2331 13.4153C33.3561 13.9692 33.6638 14.4122 34.0946 14.7199C34.5192 15.0276 35.1469 15.1384 35.8238 15.1999C36.5561 15.1999 37.1038 15.0276 37.5346 14.7815C37.9592 14.5353 38.2054 14.1107 38.4515 13.4953C38.6915 12.8799 38.7531 12.0799 38.7531 11.0953V9.7353C38.7531 8.75069 38.63 7.96915 38.4515 7.35377C38.2669 6.80607 37.9592 6.35684 37.5346 6.04915C37.1038 5.74146 36.5623 5.63069 35.8854 5.63069L35.8792 5.62454ZM43.3746 5.67992V13.003C43.3131 13.1876 43.1962 13.2984 43.0115 13.4215C42.8885 13.5445 42.6977 13.6122 42.5131 13.6122C42.3285 13.6122 42.1562 13.5507 42.0946 13.3661C42.0331 13.1815 41.9838 12.9353 41.9838 12.5045V5.74146H39.8915V12.6399C39.8915 13.5015 40.0023 14.1107 40.31 14.5415C40.6115 14.9722 41.0546 15.1568 41.67 15.1568C42.5315 15.1568 43.1962 14.7322 43.6269 13.8707H43.6823L43.8731 14.9661H45.4669V5.74146C45.4669 5.74146 43.3746 5.74146 43.3746 5.68607V5.67992ZM54.0269 5.67992V13.003C53.9654 13.1876 53.8485 13.2984 53.6638 13.4215C53.5408 13.5445 53.35 13.6122 53.1654 13.6122C52.9808 13.6122 52.8085 13.5507 52.7469 13.3661C52.6854 13.1815 52.6177 12.9353 52.6177 12.5045V5.74146H50.5254V12.6399C50.5254 13.5015 50.6546 14.1107 50.9623 14.5415C51.27 14.9722 51.6885 15.1568 52.3038 15.1568C53.1592 15.1568 53.8485 14.7322 54.2792 13.8707H54.3346L54.5069 14.9661H56.1192V5.74146C56.1192 5.74146 54.0269 5.74146 54.0269 5.68607V5.67992ZM66.8885 6.96607C67.1346 6.96607 67.2454 7.03377 67.3685 7.15684C67.4915 7.34146 67.5531 7.51992 67.6146 7.82761C67.6762 8.13531 67.67 8.57223 67.67 9.18761V9.85838H66.1315V9.18761C66.1315 8.57223 66.1315 8.13531 66.1869 7.82761C66.1869 7.58146 66.2546 7.33531 66.3777 7.21223C66.5008 7.02761 66.6915 6.96607 66.8762 6.96607H66.8885ZM35.8177 7.03992C36.1254 7.03992 36.31 7.15069 36.4331 7.45838C36.55 7.76607 36.6054 8.25838 36.6054 8.93531V11.8153C36.6054 12.4922 36.5562 12.9845 36.4331 13.2922C36.31 13.5999 36.1254 13.7107 35.8177 13.7107C35.51 13.7107 35.3315 13.5999 35.2085 13.2922C35.0854 12.9845 35.0177 12.4922 35.0177 11.8153V8.93531C35.0177 8.25838 35.0854 7.76607 35.2085 7.45838C35.3315 7.15069 35.51 7.03992 35.8177 7.03992ZM60.2361 7.0953C60.4208 7.0953 60.6115 7.15684 60.7346 7.34146C60.8577 7.52607 60.9008 7.75377 60.9623 8.18454C61.0238 8.55377 61.0362 9.11377 61.0362 9.85223L61.0915 11.0215C61.0915 11.6984 61.0915 12.2461 61.0362 12.6153C60.9746 12.9845 60.9192 13.2799 60.7346 13.403C60.6115 13.5876 60.4269 13.6492 60.1808 13.6492C59.9962 13.6492 59.8669 13.5999 59.6823 13.5384C59.5592 13.4768 59.4423 13.3599 59.3192 13.1753V7.94454C59.3808 7.69838 59.4977 7.51377 59.6823 7.32915C59.8669 7.14454 60.0515 7.083 60.2361 7.083V7.0953Z" fill="white"/>
</g>
<defs>
<clipPath id="clip0_1_250">
<rect width="72" height="16" fill="white" transform="translate(0.549988 0.719971)"/>
</clipPath>
</defs>
</svg>
