<svg width="37" height="37" viewBox="0 0 37 37" fill="none" xmlns="http://www.w3.org/2000/svg">
<path d="M20.7 14.91V10.46L28.49 18.25L20.7 26.04V21.48C16.77 21.41 12.6 22.53 9.84 25.48C9.3 25.85 8.1 28.01 8.62 26.37C9.58 22.04 12.3 17.9 16.48 16.1C17.81 15.5 19.24 15.12 20.69 14.91H20.7Z" fill="white" stroke="black" stroke-opacity="0.15" stroke-width="2"/>
<path d="M20.7 14.91V10.46L28.49 18.25L20.7 26.04V21.48C16.77 21.41 12.6 22.53 9.84 25.48C9.3 25.85 8.1 28.01 8.62 26.37C9.58 22.04 12.3 17.9 16.48 16.1C17.81 15.5 19.24 15.12 20.69 14.91H20.7Z" fill="white"/>
</svg>
